<svg width="160" height="160" viewBox="0 0 160 160" fill="none" xmlns="http://www.w3.org/2000/svg">
  <circle cx="80" cy="80" r="68" fill="#4a9910" opacity="0.03"/>
  <circle cx="80" cy="80" r="48" fill="#7acc30" opacity="0.03"/>
  <circle cx="80" cy="80" r="26" fill="#b4ff50" opacity="0.05"/>
  <line x1="52" y1="32" x2="44" y2="68" stroke="#b4ff50" stroke-width="1.5" opacity="0.3"/>
  <line x1="52" y1="32" x2="76" y2="72" stroke="#b4ff50" stroke-width="1.2" opacity="0.2"/>
  <line x1="80" y1="24" x2="76" y2="72" stroke="#b4ff50" stroke-width="1.5" opacity="0.3"/>
  <line x1="80" y1="24" x2="44" y2="68" stroke="#b4ff50" stroke-width="1.2" opacity="0.2"/>
  <line x1="108" y1="32" x2="76" y2="72" stroke="#b4ff50" stroke-width="1.2" opacity="0.2"/>
  <line x1="108" y1="32" x2="112" y2="65" stroke="#b4ff50" stroke-width="1.5" opacity="0.3"/>
  <line x1="66" y1="46" x2="44" y2="68" stroke="#b4ff50" stroke-width="1.2" opacity="0.2"/>
  <line x1="66" y1="46" x2="76" y2="72" stroke="#b4ff50" stroke-width="1" opacity="0.15"/>
  <line x1="96" y1="44" x2="112" y2="65" stroke="#b4ff50" stroke-width="1.2" opacity="0.2"/>
  <line x1="96" y1="44" x2="76" y2="72" stroke="#b4ff50" stroke-width="1" opacity="0.15"/>
  <line x1="44" y1="68" x2="56" y2="108" stroke="#7acc30" stroke-width="1.2" opacity="0.18"/>
  <line x1="44" y1="68" x2="80" y2="112" stroke="#7acc30" stroke-width="1" opacity="0.12"/>
  <line x1="76" y1="72" x2="80" y2="112" stroke="#7acc30" stroke-width="1.2" opacity="0.18"/>
  <line x1="76" y1="72" x2="56" y2="108" stroke="#7acc30" stroke-width="1" opacity="0.12"/>
  <line x1="76" y1="72" x2="104" y2="108" stroke="#7acc30" stroke-width="1" opacity="0.12"/>
  <line x1="112" y1="65" x2="104" y2="108" stroke="#7acc30" stroke-width="1.2" opacity="0.18"/>
  <line x1="60" y1="88" x2="56" y2="108" stroke="#7acc30" stroke-width="1" opacity="0.12"/>
  <line x1="100" y1="86" x2="104" y2="108" stroke="#7acc30" stroke-width="1" opacity="0.12"/>
  <line x1="56" y1="108" x2="68" y2="136" stroke="#4a9910" stroke-width="1" opacity="0.08"/>
  <line x1="80" y1="112" x2="68" y2="136" stroke="#4a9910" stroke-width="1" opacity="0.08"/>
  <line x1="80" y1="112" x2="92" y2="138" stroke="#4a9910" stroke-width="1" opacity="0.08"/>
  <line x1="104" y1="108" x2="92" y2="138" stroke="#4a9910" stroke-width="1" opacity="0.08"/>
  <circle cx="52" cy="32" r="6" fill="#b4ff50" opacity="0.95"/>
  <circle cx="80" cy="24" r="7" fill="#b4ff50" opacity="0.95"/>
  <circle cx="108" cy="32" r="6" fill="#b4ff50" opacity="0.9"/>
  <circle cx="66" cy="46" r="4" fill="#b4ff50" opacity="0.8"/>
  <circle cx="96" cy="44" r="4" fill="#b4ff50" opacity="0.8"/>
  <circle cx="44" cy="68" r="5.5" fill="#7acc30" opacity="0.65"/>
  <circle cx="76" cy="72" r="6" fill="#7acc30" opacity="0.7"/>
  <circle cx="112" cy="65" r="5" fill="#7acc30" opacity="0.6"/>
  <circle cx="60" cy="88" r="3" fill="#7acc30" opacity="0.45"/>
  <circle cx="100" cy="86" r="3" fill="#7acc30" opacity="0.45"/>
  <circle cx="56" cy="108" r="5" fill="#4a9910" opacity="0.38"/>
  <circle cx="80" cy="112" r="5" fill="#4a9910" opacity="0.35"/>
  <circle cx="104" cy="108" r="5" fill="#4a9910" opacity="0.38"/>
  <circle cx="68" cy="136" r="4" fill="#3a7808" opacity="0.2"/>
  <circle cx="92" cy="138" r="4" fill="#3a7808" opacity="0.18"/>
</svg>
